<mxfile host="app.diagrams.net" modified="2021-09-05T13:15:40.079Z" agent="5.0 (Windows NT 10.0; Win64; x64) AppleWebKit/537.36 (KHTML, like Gecko) Chrome/92.0.4515.159 Safari/537.36 Edg/92.0.902.84" etag="ILklxxxvWKvft1Rafy9K" version="14.9.2" type="github">
  <diagram id="xNRfV4RbC_VtHPkVNlCB" name="Page-1">
    <mxGraphModel dx="1071" dy="741" grid="1" gridSize="10" guides="1" tooltips="1" connect="1" arrows="1" fold="1" page="1" pageScale="1" pageWidth="1169" pageHeight="1654" math="0" shadow="0">
      <root>
        <mxCell id="0" />
        <mxCell id="1" parent="0" />
        <mxCell id="9DXqxPgkJLgAn7C3gLoq-1" value="User Management" style="rounded=0;whiteSpace=wrap;html=1;verticalAlign=top;" vertex="1" parent="1">
          <mxGeometry x="150" y="40" width="590" height="630" as="geometry" />
        </mxCell>
        <mxCell id="9DXqxPgkJLgAn7C3gLoq-2" value="User" style="shape=umlActor;verticalLabelPosition=bottom;verticalAlign=top;html=1;outlineConnect=0;" vertex="1" parent="1">
          <mxGeometry x="50" y="210" width="30" height="70" as="geometry" />
        </mxCell>
        <mxCell id="9DXqxPgkJLgAn7C3gLoq-4" value="Login" style="ellipse;whiteSpace=wrap;html=1;verticalAlign=middle;" vertex="1" parent="1">
          <mxGeometry x="230" y="80" width="120" height="60" as="geometry" />
        </mxCell>
        <mxCell id="9DXqxPgkJLgAn7C3gLoq-5" value="Report&lt;br&gt;Invalid Login" style="ellipse;whiteSpace=wrap;html=1;verticalAlign=middle;" vertex="1" parent="1">
          <mxGeometry x="430" y="170" width="120" height="60" as="geometry" />
        </mxCell>
        <mxCell id="9DXqxPgkJLgAn7C3gLoq-6" value="Check &lt;br&gt;credentials" style="ellipse;whiteSpace=wrap;html=1;verticalAlign=middle;" vertex="1" parent="1">
          <mxGeometry x="430" y="80" width="120" height="60" as="geometry" />
        </mxCell>
        <mxCell id="9DXqxPgkJLgAn7C3gLoq-7" value="View &lt;br&gt;Users" style="ellipse;whiteSpace=wrap;html=1;verticalAlign=middle;" vertex="1" parent="1">
          <mxGeometry x="230" y="200" width="120" height="60" as="geometry" />
        </mxCell>
        <mxCell id="9DXqxPgkJLgAn7C3gLoq-8" value="Enable&lt;br&gt;Admin&lt;br&gt;Features" style="ellipse;whiteSpace=wrap;html=1;verticalAlign=middle;" vertex="1" parent="1">
          <mxGeometry x="390" y="250" width="140" height="60" as="geometry" />
        </mxCell>
        <mxCell id="9DXqxPgkJLgAn7C3gLoq-9" value="Edit logged&lt;br&gt;in User details" style="ellipse;whiteSpace=wrap;html=1;verticalAlign=middle;" vertex="1" parent="1">
          <mxGeometry x="230" y="280" width="120" height="60" as="geometry" />
        </mxCell>
        <mxCell id="9DXqxPgkJLgAn7C3gLoq-10" value="Reset &lt;br&gt;Password" style="ellipse;whiteSpace=wrap;html=1;verticalAlign=middle;" vertex="1" parent="1">
          <mxGeometry x="500" y="325" width="120" height="60" as="geometry" />
        </mxCell>
        <mxCell id="9DXqxPgkJLgAn7C3gLoq-12" value="Admin User" style="shape=umlActor;verticalLabelPosition=bottom;verticalAlign=top;html=1;outlineConnect=0;" vertex="1" parent="1">
          <mxGeometry x="50" y="390" width="30" height="60" as="geometry" />
        </mxCell>
        <mxCell id="9DXqxPgkJLgAn7C3gLoq-15" value="Create New User" style="ellipse;whiteSpace=wrap;html=1;verticalAlign=middle;" vertex="1" parent="1">
          <mxGeometry x="280" y="370" width="150" height="60" as="geometry" />
        </mxCell>
        <mxCell id="9DXqxPgkJLgAn7C3gLoq-16" value="Edit Existing User" style="ellipse;whiteSpace=wrap;html=1;verticalAlign=middle;" vertex="1" parent="1">
          <mxGeometry x="275" y="450" width="155" height="60" as="geometry" />
        </mxCell>
        <mxCell id="9DXqxPgkJLgAn7C3gLoq-17" value="Delete User" style="ellipse;whiteSpace=wrap;html=1;verticalAlign=middle;" vertex="1" parent="1">
          <mxGeometry x="280" y="520" width="150" height="60" as="geometry" />
        </mxCell>
        <mxCell id="9DXqxPgkJLgAn7C3gLoq-19" value="Logout/Exit" style="ellipse;whiteSpace=wrap;html=1;verticalAlign=middle;" vertex="1" parent="1">
          <mxGeometry x="170" y="560" width="110" height="60" as="geometry" />
        </mxCell>
        <mxCell id="9DXqxPgkJLgAn7C3gLoq-20" value="Check Unique &lt;br&gt;Email" style="ellipse;whiteSpace=wrap;html=1;verticalAlign=middle;" vertex="1" parent="1">
          <mxGeometry x="500" y="420" width="130" height="60" as="geometry" />
        </mxCell>
      </root>
    </mxGraphModel>
  </diagram>
</mxfile>
